<svg xmlns="http://www.w3.org/2000/svg" xmlns:xlink="http://www.w3.org/1999/xlink" width="30" height="30.001" viewBox="0 0 30 30.001">
  <defs>
    <style>
      .cls-1 {
        fill: #a99b7f;
      }

      .cls-2 {
        clip-path: url(#clip-path);
      }
    </style>
    <clipPath id="clip-path">
      <rect id="Rectangle_3379" data-name="Rectangle 3379" class="cls-1" width="30" height="30.001" transform="translate(0 0)"/>
    </clipPath>
  </defs>
  <g id="Group_7765" data-name="Group 7765" transform="translate(0 0)">
    <g id="Group_7764" data-name="Group 7764" class="cls-2">
      <path id="Path_2687" data-name="Path 2687" class="cls-1" d="M14.992,0A15,15,0,1,0,30,15.015,15.023,15.023,0,0,0,14.992,0m0,28A13,13,0,1,1,28,14.988,12.992,12.992,0,0,1,14.994,28"/>
      <path id="Path_2688" data-name="Path 2688" class="cls-1" d="M19,11.924A1,1,0,0,1,18.06,13,.992.992,0,0,1,17,12.01a1,1,0,0,0-.546-.887,2.886,2.886,0,0,0-2.918.01,1.3,1.3,0,0,0-.1,2.048,4.132,4.132,0,0,0,1.382.7,15.945,15.945,0,0,1,2.231.868,3.574,3.574,0,0,1,1.831,4.108,3.224,3.224,0,0,1-2.221,2.137c-.216.08-.531.016-.633.234A1.737,1.737,0,0,0,16,21.9a1,1,0,0,1-.943,1.1A.993.993,0,0,1,14,22.046c-.013-.29.087-.649-.05-.851-.122-.18-.5-.174-.764-.269a3.078,3.078,0,0,1-2.184-2.887,1,1,0,0,1,.968-1.049A.976.976,0,0,1,13,17.972a1.05,1.05,0,0,0,.6.95,2.941,2.941,0,0,0,2.788,0,1.3,1.3,0,0,0,.2-2.079,3.678,3.678,0,0,0-1.23-.655c-.688-.262-1.4-.45-2.075-.759a3.545,3.545,0,0,1-2.22-2.769A3.094,3.094,0,0,1,13.418,9C14,8.826,14,8.826,14,8.224a1.552,1.552,0,0,1,.06-.554,1.016,1.016,0,0,1,1.087-.657,1,1,0,0,1,.85.941c.013.291-.095.657.044.852s.519.187.787.288A3.048,3.048,0,0,1,19,11.924"/>
    </g>
  </g>
</svg>
