<svg xmlns="http://www.w3.org/2000/svg" xmlns:xlink="http://www.w3.org/1999/xlink" width="30" height="30.853" viewBox="0 0 30 30.853">
  <defs>
    <style>
      .cls-1 {
        fill: #a6987e;
      }

      .cls-2 {
        clip-path: url(#clip-path);
      }
    </style>
    <clipPath id="clip-path">
      <rect id="Rectangle_3378" data-name="Rectangle 3378" class="cls-1" width="30" height="30.853" transform="translate(0 0)"/>
    </clipPath>
  </defs>
  <g id="Group_7763" data-name="Group 7763" transform="translate(0 0)">
    <g id="Group_7762" data-name="Group 7762" class="cls-2">
      <path id="Path_2686" data-name="Path 2686" class="cls-1" d="M29.323,20.626a3.563,3.563,0,0,0-.011-4.194.51.51,0,0,1-.066-.518,3.387,3.387,0,0,0-1.571-4.158,6.948,6.948,0,0,0-3.243-.776,20.215,20.215,0,0,0-5.163.561c-.28.062-.319-.014-.3-.263a12.435,12.435,0,0,1,.58-2.7A14.422,14.422,0,0,0,20.4,4.444a4.829,4.829,0,0,0-.534-2.409A3.881,3.881,0,0,0,16.5,0a1.661,1.661,0,0,0-1.734,1.079,4.341,4.341,0,0,0-.269,2.1,1.553,1.553,0,0,1-.067.735,46.606,46.606,0,0,1-2.748,5.936,11.323,11.323,0,0,1-2.042,2.888A7.186,7.186,0,0,0,7.988,14.9c-.055.115-.1.174-.242.1a2.712,2.712,0,0,0-1.284-.254c-1.2.005-2.411,0-3.616,0A2.7,2.7,0,0,0,0,17.61q0,5.063,0,10.125a3.025,3.025,0,0,0,.1.833A2.68,2.68,0,0,0,2.812,30.6c1.235.008,2.471,0,3.706,0A2.56,2.56,0,0,0,7.9,30.263a.883.883,0,0,1,.627-.116c.587.078,1.174.156,1.763.216a69.764,69.764,0,0,0,7.877.4,1.3,1.3,0,0,1,.689.085h.422a.453.453,0,0,1,.361,0h.965a.327.327,0,0,1,.3,0h.422c.049-.049.111-.025.168-.031s.1-.01.133.031h.181a2.071,2.071,0,0,1,.715-.118A7.983,7.983,0,0,0,26.28,29.4a3.778,3.778,0,0,0,1.64-3.365.848.848,0,0,1,.256-.707A3.955,3.955,0,0,0,29.2,21.363a.793.793,0,0,1,.119-.737M7.57,27.757a.975.975,0,0,1-1.092,1.1q-1.853,0-3.7,0a.95.95,0,0,1-1.028-1.033q0-2.59,0-5.181,0-2.529,0-5.06a.961.961,0,0,1,1.085-1.1q1.822-.006,3.644,0a.964.964,0,0,1,1.1,1.09q0,5.089,0,10.18M27.619,20a1.183,1.183,0,0,0-.221,1.446,2.346,2.346,0,0,1-.751,2.933,1.235,1.235,0,0,0-.51,1.35,2.336,2.336,0,0,1-1.688,2.725,8.452,8.452,0,0,1-3.527.637c-2.91-.052-5.823-.026-8.725-.3-.919-.086-1.836-.195-2.754-.288-.112-.012-.179-.019-.172-.169.091-1.876.007-3.754.039-5.267,0-2.021,0-3.678,0-5.335a5.689,5.689,0,0,0-.084-.956,1.919,1.919,0,0,1,.335-1.131,5.008,5.008,0,0,1,1.184-1.575,12.469,12.469,0,0,0,2.3-3.106A48,48,0,0,0,16.21,4.105a1.631,1.631,0,0,0,.039-.8,4.634,4.634,0,0,1,.013-1.2c.048-.362.122-.416.484-.341a2.192,2.192,0,0,1,1.882,2.171,8.321,8.321,0,0,1-.459,3.134,24.626,24.626,0,0,0-.847,3.191,5.352,5.352,0,0,0-.029,1.914,1.425,1.425,0,0,0,1.783,1.169,20.01,20.01,0,0,1,5.332-.624,6.56,6.56,0,0,1,2.035.359,1.761,1.761,0,0,1,1.014,2.63c-.317.632-.3.818.159,1.349a2.026,2.026,0,0,1,0,2.945"/>
    </g>
  </g>
</svg>
