<svg id="Group_7729" data-name="Group 7729" xmlns="http://www.w3.org/2000/svg" xmlns:xlink="http://www.w3.org/1999/xlink" width="51.885" height="43.918" viewBox="0 0 51.885 43.918">
  <defs>
    <style>
      .cls-1 {
        fill: #fff;
      }

      .cls-2 {
        clip-path: url(#clip-path);
      }
    </style>
    <clipPath id="clip-path">
      <rect id="Rectangle_3360" data-name="Rectangle 3360" class="cls-1" width="51.885" height="43.918"/>
    </clipPath>
  </defs>
  <g id="Group_7728" data-name="Group 7728" class="cls-2">
    <path id="Path_2684" data-name="Path 2684" class="cls-1" d="M70.31,76.512q1.925-2.034,3.841-4.064c.207-.219.462-.137.7-.137Q86.128,72.3,97.407,72.3a7.877,7.877,0,0,0,7.821-6.233,8.635,8.635,0,0,0,.173-1.928c0-5.026,0-10.052-.012-15.078,0-.433.084-.578.552-.558a5.624,5.624,0,0,1,5.5,5.64q.034,8.853,0,17.705a5.58,5.58,0,0,1-5.383,5.624c-.76.046-.935.269-.821,1.006.289,1.879.568,3.76.858,5.639.053.343.054.662-.306.833s-.609-.018-.856-.261c-2.28-2.243-4.57-4.475-6.84-6.728a1.578,1.578,0,0,0-1.213-.486q-11.593.017-23.186.013a5.581,5.581,0,0,1-3.384-.98" transform="translate(-59.573 -41.099)"/>
    <path id="Path_2685" data-name="Path 2685" class="cls-1" d="M43.478,4.422A5.633,5.633,0,0,0,37.733.006C32.422-.005,27.111,0,21.8,0Q13.891,0,5.981,0A5.643,5.643,0,0,0,0,5.97Q0,14.537,0,23.1a6.436,6.436,0,0,0,.169,1.584,5.607,5.607,0,0,0,5.095,4.278c.946.075,1.067.219.929,1.119-.275,1.8-.548,3.609-.832,5.411-.059.372-.129.748.282.947s.671-.077.94-.341c2.24-2.2,4.495-4.388,6.722-6.6a1.625,1.625,0,0,1,1.256-.51q11.507.018,23.014.008a5.694,5.694,0,0,0,6.056-6.083q0-8.424,0-16.848a7.091,7.091,0,0,0-.155-1.644m-30.754,9.8c-.367.36-.721.735-1.108,1.072a1,1,0,0,0-.359,1.108c.149.608.221,1.234.313,1.773-.012.594-.38.84-.857.614-.583-.276-1.153-.581-1.717-.893a.845.845,0,0,0-.909-.005c-.527.3-1.074.567-1.612.847a.655.655,0,0,1-.748.035c-.285-.2-.261-.484-.211-.772.09-.524.171-1.051.284-1.571a1.038,1.038,0,0,0-.347-1.119c-.431-.372-.816-.8-1.229-1.192a.647.647,0,0,1-.231-.711.607.607,0,0,1,.57-.4c.621-.09,1.239-.207,1.862-.273a.829.829,0,0,0,.727-.543c.213-.466.446-.922.675-1.381.159-.319.268-.715.724-.7s.546.416.7.732c.23.458.461.916.672,1.383a.781.781,0,0,0,.689.507c.567.06,1.131.15,1.695.24.317.051.658.08.771.472.106.363-.14.563-.357.776m13.426-.153c-.446.468-.919.911-1.388,1.358a.8.8,0,0,0-.251.82c.13.613.211,1.237.322,1.854a.612.612,0,0,1-.212.662.593.593,0,0,1-.694.005c-.553-.294-1.114-.574-1.661-.878a.852.852,0,0,0-.91,0c-.563.315-1.134.617-1.717.894a.581.581,0,0,1-.882-.551c.1-.566.19-1.168.315-1.763a1.116,1.116,0,0,0-.391-1.217c-.382-.313-.708-.691-1.071-1.028-.248-.231-.466-.47-.34-.838s.457-.368.753-.416c.563-.091,1.127-.183,1.694-.24a.792.792,0,0,0,.693-.5c.26-.549.54-1.088.8-1.637.121-.256.277-.474.577-.484.329-.011.5.215.628.494.207.448.473.873.639,1.334a1.22,1.22,0,0,0,1.192.865,13.265,13.265,0,0,1,1.58.226c.6.122.749.592.322,1.041m13.282,0c-.432.455-.891.886-1.352,1.313a.817.817,0,0,0-.281.813c.115.617.2,1.239.314,1.856a.652.652,0,0,1-.214.715.63.63,0,0,1-.746-.019c-.537-.285-1.076-.563-1.607-.859a.852.852,0,0,0-.911.009c-.563.316-1.136.615-1.718.892a.574.574,0,0,1-.878-.519c.11-.676.2-1.355.337-2.025a.808.808,0,0,0-.256-.819c-.454-.434-.9-.879-1.349-1.316a.639.639,0,0,1-.245-.657.627.627,0,0,1,.6-.443c.6-.083,1.2-.2,1.806-.261a.9.9,0,0,0,.8-.611c.239-.537.519-1.055.775-1.585a.6.6,0,0,1,1.156-.006c.27.565.558,1.122.825,1.688a.793.793,0,0,0,.691.5c.642.071,1.283.167,1.917.291a.573.573,0,0,1,.333,1.04" transform="translate(0 0)"/>
  </g>
</svg>
