<svg id="Group_7791" data-name="Group 7791" xmlns="http://www.w3.org/2000/svg" width="138.29" height="84.88" viewBox="0 0 138.29 84.88">
  <defs>
    <style>
      .cls-1 {
        fill: #fff;
      }
    </style>
  </defs>
  <path id="Path_2691" data-name="Path 2691" class="cls-1" d="M1097.064,1418.292a5.368,5.368,0,0,0-5.4,5.369,5.4,5.4,0,1,0,10.8,0A5.362,5.362,0,0,0,1097.064,1418.292Zm0,8.072a2.757,2.757,0,0,1-2.692-2.775,2.7,2.7,0,0,1,5.391.007A2.754,2.754,0,0,1,1097.061,1426.364Z" transform="translate(-1047.881 -1360.799)"/>
  <path id="Path_2692" data-name="Path 2692" class="cls-1" d="M1152.373,1418.292a5.37,5.37,0,0,0-5.337,5.431,5.4,5.4,0,1,0,10.8-.126A5.373,5.373,0,0,0,1152.373,1418.292Zm.065,8.072a2.76,2.76,0,0,1-2.7-2.771,2.7,2.7,0,0,1,5.395,0A2.76,2.76,0,0,1,1152.438,1426.364Z" transform="translate(-1083.27 -1360.799)"/>
  <path id="Path_2693" data-name="Path 2693" class="cls-1" d="M1207.84,1418.292a5.37,5.37,0,0,0-5.424,5.344,5.4,5.4,0,1,0,10.8.047A5.365,5.365,0,0,0,1207.84,1418.292Zm.025,8.072a2.754,2.754,0,0,1-2.746-2.721,2.7,2.7,0,0,1,5.391.032A2.755,2.755,0,0,1,1207.865,1426.364Z" transform="translate(-1118.667 -1360.799)"/>
  <path id="Path_2694" data-name="Path 2694" class="cls-1" d="M1108.615,1335.945q-68.378,0-136.763-.011c-.473,0-1.234.26-1.371-.159a5.437,5.437,0,0,1-.076-2.255c.058-.491.592-.263.906-.267,2.522-.018,5.041-.04,7.56.011.769.014.978-.209.964-.971-.047-2.472-.033-4.947-.007-7.423a2.979,2.979,0,0,0-.444-1.515q-4.271-7.789-8.512-15.6c-.956-1.757-.448-2.587,1.577-2.594,2.428-.007,4.861.061,7.289-.029,1.194-.043.917.7.87,1.3-.047.577.5,1.512-.852,1.451-1.84-.087-3.684-.022-5.539-.022-.108.6.3.96.523,1.364q3.529,6.511,7.123,12.983a5.121,5.121,0,0,1,.668,2.685c-.043,2.385.051,4.774-.043,7.152-.043,1.064.31,1.219,1.27,1.219q21.331-.048,42.663-.021,29.97,0,59.943.021a2.123,2.123,0,0,0,2.046-1.086c5.236-7.848,10.522-15.661,15.787-23.491.137-.206.411-.372.292-.826h-1.252c-9.136,0-18.27.011-27.406-.018a1.85,1.85,0,0,0-1.765.888c-1.014,1.483-2.14,2.89-3.179,4.355a2.128,2.128,0,0,1-1.912,1q-29.5-.027-59,0a2.04,2.04,0,0,1-1.819-.916c-1.021-1.425-2.125-2.793-3.1-4.251a2.168,2.168,0,0,0-2.078-1.079c-5.265.054-10.529-.029-15.794.065-1.3.022-1.173-.6-1.18-1.447s-.04-1.429,1.162-1.328c1.606.141,3.237-.011,4.853.054a1.38,1.38,0,0,0,1.526-.946c1.4-3.107,2.916-6.163,4.3-9.274a2.093,2.093,0,0,1,2.262-1.454c1.108.047,2.558.494,3.248-.177s.195-2.129.2-3.24c.029-3.962.007-7.92.014-11.883,0-1.526.393-1.923,1.884-1.934,1.71-.011,3.424-.054,5.131.018.884.04,1.111-.22,1.1-1.1-.047-4.727-.025-9.45-.022-14.177,0-1.674.361-2.017,2.071-2.021,2.475,0,4.954.065,7.426-.029a2.022,2.022,0,0,1,2.342,1.829c1.151,4.785,2.389,9.552,3.529,14.34.217.917.567,1.187,1.512,1.165,2.829-.065,2.833-.018,2.833-2.869q0-6.208,0-12.42c0-1.671.361-2.013,2.078-2.017,2.472,0,4.951.065,7.422-.029a2.024,2.024,0,0,1,2.338,1.833c1.151,4.788,2.389,9.552,3.525,14.344.22.92.588,1.151,1.519,1.162,3.821.047,7.65-.31,11.46.22a18.42,18.42,0,0,1,15.4,15.505c.162,1.213.516,1.566,1.783,1.566,4.633-.007,3.522-.8,5.6,3.547,1.083,2.266,2.176,4.529,3.183,6.827a1.728,1.728,0,0,0,1.88,1.223c6.3-.061,12.6-.014,18.9-.047a2.515,2.515,0,0,1,2.136.826c-5.088-.834-10.215-.22-15.321-.39-1.84-.061-3.688-.04-5.532,0a2.361,2.361,0,0,1-2.436-1.526c-1.158-2.537-2.479-5-3.518-7.589-.733-1.822-1.826-2.829-3.875-2.508a4.64,4.64,0,0,1-.808,0c-1.786-.036-2.129-.253-2.4-2.039a18.238,18.238,0,0,0-18.522-15.246c-2.475.047-4.951.022-7.426,0-1.772-.018-2.125-.256-2.53-1.97q-1.542-6.5-3.258-12.958c-.581-2.208-.74-2.338-3.049-2.342-2.071,0-4.139-.029-6.21.007-1.548.029-1.905.375-1.92,1.941-.036,4.186-.007,8.372-.015,12.554a11.973,11.973,0,0,1-.047,1.483,1.441,1.441,0,0,1-.321.87c-.96,1.046-4.3.361-4.738-.989a29.21,29.21,0,0,1-.729-2.876c-.79-3.746-1.884-7.412-2.811-11.121-.4-1.6-.729-1.848-2.324-1.865-2.252-.022-4.5-.029-6.751,0-1.624.022-1.967.361-1.977,2.021-.033,3.962-.011,7.921-.011,11.879,0,.494.011.992-.011,1.487-.065,1.519-.343,1.819-1.837,1.869-1.44.047-2.883-.014-4.319.025-1.559.047-1.909.375-1.923,1.941-.032,4.276,0,8.548-.014,12.824-.007,2.277-.227,2.638-2.443,2.457-2.19-.181-3.316.754-4.034,2.685-.852,2.277-2.147,4.363-3.024,6.629a3.22,3.22,0,0,1-3.717,2.364,21.462,21.462,0,0,0-2.97-.011c-.642.015-1.324.018-1.306.949s.718.909,1.35.913c4.68.018,9.36.079,14.037-.025a4.2,4.2,0,0,1,4.161,2.1c.5.844,1.18,1.591,1.707,2.425a3.271,3.271,0,0,0,3.381,1.721,9.745,9.745,0,0,1,1.079-.007c18.4,0,36.81-.022,55.213.036a4.125,4.125,0,0,0,4.045-2.042c.57-.963,1.321-1.819,1.952-2.75a3.247,3.247,0,0,1,2.977-1.469c6.795.032,13.589.018,20.384.018,2.068,0,4.139-.029,6.21.011,1.855.032,2.14.538,1.115,2.075-4.41,6.632-8.888,13.218-13.337,19.825-.7,1.043-1.425,2.078-2.125,3.125a2.384,2.384,0,0,1-2.147,1.155c-.451-.007-.9.007-1.349.007h-99.9c-3.136,0-3.136,0-3.136-3.15a17.932,17.932,0,0,1,.011-2.158,13.851,13.851,0,0,0-2.425-9.3c-1.93-3.085-3.525-6.376-5.283-9.57-.794-1.443-.5-1.941,1.144-2.01,1.169-.047,2.342.011,3.511-.029.585-.018,1.083-.144,1.086-.891,0-.707-.426-.946-1.039-.953-2.248-.033-4.5-.083-6.748.018-1.31.062-1.7.711-1.148,1.895.718,1.548,1.6,3.02,2.425,4.514,2,3.626,3.995,7.253,5.943,10.9a3.632,3.632,0,0,1,.567,1.5c.13,2.652.112,5.308.014,7.96-.036,1-.747,1.238-1.591,1.252-1.934.032-3.868,0-5.806.014a9.751,9.751,0,0,0-1.212.047c-.567.079-.733.455-.725.956a.75.75,0,0,0,.707.826,12.931,12.931,0,0,0,1.754.051q66.348,0,132.7.011C1106.875,1335.545,1107.817,1335.328,1108.615,1335.945Z" transform="translate(-970.325 -1258.964)"/>
  <path id="Path_2695" data-name="Path 2695" class="cls-1" d="M970.924,1487.862a.749.749,0,0,0,.689.837,12.216,12.216,0,0,0,2.021.072q66.137,0,132.274.011c.924,0,1.905-.22,2.735.433q-68.378,0-136.763-.011c-.473,0-1.234.26-1.375-.162a6.913,6.913,0,0,1-.087-2.259c.007-.289.3-.267.516-.267.361,0,.722,0,1.083,0h136.626a2.019,2.019,0,0,1-1.386.43c-.628.022-1.259.014-1.887.014H973.638a12.19,12.19,0,0,0-2.021.072A.746.746,0,0,0,970.924,1487.862Z" transform="translate(-970.354 -1404.403)"/>
  <path id="Path_2696" data-name="Path 2696" class="cls-1" d="M1014.846,1301.629c-2.7.083-5.4.025-8.1.025-1.949,0-1.916,0-1.84,1.959.025.592.177.769.765.754,1.53-.04,3.06-.014,4.59-.014s3.064-.072,4.586.025c1.213.076.9-.725.859-1.31S1016.188,1301.589,1014.846,1301.629Zm.848-16.382c.278-1.111-.108-1.479-1.267-1.454-1.028.022-1.5.123-1.447,1.346.05,1.021.126,1.523,1.353,1.436C1015.308,1286.506,1016.077,1286.542,1015.694,1285.247Zm6.282.007c-.094-.917.061-1.8-1.3-1.386-1.05-.238-1.537.025-1.476,1.245.05.978.05,1.559,1.321,1.465C1021.493,1286.506,1022.1,1286.528,1021.976,1285.254Zm6.138,0c.256-1.072-.061-1.5-1.252-1.461-1,.036-1.534.083-1.458,1.332.061,1,.087,1.555,1.335,1.447C1027.688,1286.492,1028.515,1286.593,1028.114,1285.254Zm6.29-.065c-.04-1.047-.166-1.667-1.386-1.321-1.2-.335-1.375.238-1.4,1.31-.029,1.111.252,1.411,1.385,1.4C1034.112,1286.575,1034.443,1286.33,1034.4,1285.189Zm.74,17.66c.083-.541.31-1.281-.8-1.216-1.479.087-2.97.022-4.453.022-1.573,0-3.15.033-4.723-.011-1.364-.036-.686.967-.769,1.516s-.31,1.245.8,1.22c3.056-.069,6.116-.051,9.176-.014C1035.739,1304.382,1035.057,1303.4,1035.144,1302.849Zm5.391-17.656c.339-1.2-.238-1.375-1.306-1.4-1.115-.029-1.415.253-1.407,1.386.007,1.108.256,1.44,1.393,1.4C1040.264,1286.539,1040.885,1286.412,1040.534,1285.193ZM1054.582,1303c.007-.538.469-1.425-.787-1.364-1.483.076-2.97.018-4.453.018-1.577,0-3.154.054-4.724-.018-1.263-.054-.776.841-.779,1.375s-.465,1.389.79,1.364q4.584-.092,9.176,0C1055.066,1304.4,1054.579,1303.531,1054.582,1303Zm18.684-1.357c-3.056.036-6.116.043-9.176,0-1.483-.022-.678,1.039-.815,1.613-.152.642-.1,1.191.9,1.126,1.523-.1,3.06-.025,4.59-.025,1.483,0,2.973-.065,4.449.022,1.1.069.909-.657.812-1.205S1074.649,1301.629,1073.267,1301.644Zm0,0c-3.056.036-6.116.043-9.176,0-1.483-.022-.678,1.039-.815,1.613-.152.642-.1,1.191.9,1.126,1.523-.1,3.06-.025,4.59-.025,1.483,0,2.973-.065,4.449.022,1.1.069.909-.657.812-1.205S1074.649,1301.629,1073.267,1301.644ZM1054.582,1303c.007-.538.469-1.425-.787-1.364-1.483.076-2.97.018-4.453.018-1.577,0-3.154.054-4.724-.018-1.263-.054-.776.841-.779,1.375s-.465,1.389.79,1.364q4.584-.092,9.176,0C1055.066,1304.4,1054.579,1303.531,1054.582,1303Zm-14.048-17.807c.339-1.2-.238-1.375-1.306-1.4-1.115-.029-1.415.253-1.407,1.386.007,1.108.256,1.44,1.393,1.4C1040.264,1286.539,1040.885,1286.412,1040.534,1285.193Zm-5.391,17.656c.083-.541.31-1.281-.8-1.216-1.479.087-2.97.022-4.453.022-1.573,0-3.15.033-4.723-.011-1.364-.036-.686.967-.769,1.516s-.31,1.245.8,1.22c3.056-.069,6.116-.051,9.176-.014C1035.739,1304.382,1035.057,1303.4,1035.144,1302.849Zm-.74-17.66c-.04-1.047-.166-1.667-1.386-1.321-1.2-.335-1.375.238-1.4,1.31-.029,1.111.252,1.411,1.385,1.4C1034.112,1286.575,1034.443,1286.33,1034.4,1285.189Zm-6.29.065c.256-1.072-.061-1.5-1.252-1.461-1,.036-1.534.083-1.458,1.332.061,1,.087,1.555,1.335,1.447C1027.688,1286.492,1028.515,1286.593,1028.114,1285.254Zm-6.138,0c-.094-.917.061-1.8-1.3-1.386-1.05-.238-1.537.025-1.476,1.245.05.978.05,1.559,1.321,1.465C1021.493,1286.506,1022.1,1286.528,1021.976,1285.254Zm-6.282-.007c.278-1.111-.108-1.479-1.267-1.454-1.028.022-1.5.123-1.447,1.346.05,1.021.126,1.523,1.353,1.436C1015.308,1286.506,1016.077,1286.542,1015.694,1285.247Zm-.848,16.382c-2.7.083-5.4.025-8.1.025-1.949,0-1.916,0-1.84,1.959.025.592.177.769.765.754,1.53-.04,3.06-.014,4.59-.014s3.064-.072,4.586.025c1.213.076.9-.725.859-1.31S1016.188,1301.589,1014.846,1301.629Zm0,0c-2.7.083-5.4.025-8.1.025-1.949,0-1.916,0-1.84,1.959.025.592.177.769.765.754,1.53-.04,3.06-.014,4.59-.014s3.064-.072,4.586.025c1.213.076.9-.725.859-1.31S1016.188,1301.589,1014.846,1301.629Zm.848-16.382c.278-1.111-.108-1.479-1.267-1.454-1.028.022-1.5.123-1.447,1.346.05,1.021.126,1.523,1.353,1.436C1015.308,1286.506,1016.077,1286.542,1015.694,1285.247Zm6.282.007c-.094-.917.061-1.8-1.3-1.386-1.05-.238-1.537.025-1.476,1.245.05.978.05,1.559,1.321,1.465C1021.493,1286.506,1022.1,1286.528,1021.976,1285.254Zm6.138,0c.256-1.072-.061-1.5-1.252-1.461-1,.036-1.534.083-1.458,1.332.061,1,.087,1.555,1.335,1.447C1027.688,1286.492,1028.515,1286.593,1028.114,1285.254Zm6.29-.065c-.04-1.047-.166-1.667-1.386-1.321-1.2-.335-1.375.238-1.4,1.31-.029,1.111.252,1.411,1.385,1.4C1034.112,1286.575,1034.443,1286.33,1034.4,1285.189Zm.74,17.66c.083-.541.31-1.281-.8-1.216-1.479.087-2.97.022-4.453.022-1.573,0-3.15.033-4.723-.011-1.364-.036-.686.967-.769,1.516s-.31,1.245.8,1.22c3.056-.069,6.116-.051,9.176-.014C1035.739,1304.382,1035.057,1303.4,1035.144,1302.849Zm5.391-17.656c.339-1.2-.238-1.375-1.306-1.4-1.115-.029-1.415.253-1.407,1.386.007,1.108.256,1.44,1.393,1.4C1040.264,1286.539,1040.885,1286.412,1040.534,1285.193ZM1054.582,1303c.007-.538.469-1.425-.787-1.364-1.483.076-2.97.018-4.453.018-1.577,0-3.154.054-4.724-.018-1.263-.054-.776.841-.779,1.375s-.465,1.389.79,1.364q4.584-.092,9.176,0C1055.066,1304.4,1054.579,1303.531,1054.582,1303Zm18.684-1.357c-3.056.036-6.116.043-9.176,0-1.483-.022-.678,1.039-.815,1.613-.152.642-.1,1.191.9,1.126,1.523-.1,3.06-.025,4.59-.025,1.483,0,2.973-.065,4.449.022,1.1.069.909-.657.812-1.205S1074.649,1301.629,1073.267,1301.644Zm0,0c-3.056.036-6.116.043-9.176,0-1.483-.022-.678,1.039-.815,1.613-.152.642-.1,1.191.9,1.126,1.523-.1,3.06-.025,4.59-.025,1.483,0,2.973-.065,4.449.022,1.1.069.909-.657.812-1.205S1074.649,1301.629,1073.267,1301.644ZM1054.582,1303c.007-.538.469-1.425-.787-1.364-1.483.076-2.97.018-4.453.018-1.577,0-3.154.054-4.724-.018-1.263-.054-.776.841-.779,1.375s-.465,1.389.79,1.364q4.584-.092,9.176,0C1055.066,1304.4,1054.579,1303.531,1054.582,1303Zm-14.048-17.807c.339-1.2-.238-1.375-1.306-1.4-1.115-.029-1.415.253-1.407,1.386.007,1.108.256,1.44,1.393,1.4C1040.264,1286.539,1040.885,1286.412,1040.534,1285.193Zm-5.391,17.656c.083-.541.31-1.281-.8-1.216-1.479.087-2.97.022-4.453.022-1.573,0-3.15.033-4.723-.011-1.364-.036-.686.967-.769,1.516s-.31,1.245.8,1.22c3.056-.069,6.116-.051,9.176-.014C1035.739,1304.382,1035.057,1303.4,1035.144,1302.849Zm-.74-17.66c-.04-1.047-.166-1.667-1.386-1.321-1.2-.335-1.375.238-1.4,1.31-.029,1.111.252,1.411,1.385,1.4C1034.112,1286.575,1034.443,1286.33,1034.4,1285.189Zm-6.29.065c.256-1.072-.061-1.5-1.252-1.461-1,.036-1.534.083-1.458,1.332.061,1,.087,1.555,1.335,1.447C1027.688,1286.492,1028.515,1286.593,1028.114,1285.254Zm-6.138,0c-.094-.917.061-1.8-1.3-1.386-1.05-.238-1.537.025-1.476,1.245.05.978.05,1.559,1.321,1.465C1021.493,1286.506,1022.1,1286.528,1021.976,1285.254Zm-6.282-.007c.278-1.111-.108-1.479-1.267-1.454-1.028.022-1.5.123-1.447,1.346.05,1.021.126,1.523,1.353,1.436C1015.308,1286.506,1016.077,1286.542,1015.694,1285.247Zm-.848,16.382c-2.7.083-5.4.025-8.1.025-1.949,0-1.916,0-1.84,1.959.025.592.177.769.765.754,1.53-.04,3.06-.014,4.59-.014s3.064-.072,4.586.025c1.213.076.9-.725.859-1.31S1016.188,1301.589,1014.846,1301.629Zm0,0c-2.7.083-5.4.025-8.1.025-1.949,0-1.916,0-1.84,1.959.025.592.177.769.765.754,1.53-.04,3.06-.014,4.59-.014s3.064-.072,4.586.025c1.213.076.9-.725.859-1.31S1016.188,1301.589,1014.846,1301.629Zm.848-16.382c.278-1.111-.108-1.479-1.267-1.454-1.028.022-1.5.123-1.447,1.346.05,1.021.126,1.523,1.353,1.436C1015.308,1286.506,1016.077,1286.542,1015.694,1285.247Zm6.282.007c-.094-.917.061-1.8-1.3-1.386-1.05-.238-1.537.025-1.476,1.245.05.978.05,1.559,1.321,1.465C1021.493,1286.506,1022.1,1286.528,1021.976,1285.254Zm6.138,0c.256-1.072-.061-1.5-1.252-1.461-1,.036-1.534.083-1.458,1.332.061,1,.087,1.555,1.335,1.447C1027.688,1286.492,1028.515,1286.593,1028.114,1285.254Zm6.29-.065c-.04-1.047-.166-1.667-1.386-1.321-1.2-.335-1.375.238-1.4,1.31-.029,1.111.252,1.411,1.385,1.4C1034.112,1286.575,1034.443,1286.33,1034.4,1285.189Zm.74,17.66c.083-.541.31-1.281-.8-1.216-1.479.087-2.97.022-4.453.022-1.573,0-3.15.033-4.723-.011-1.364-.036-.686.967-.769,1.516s-.31,1.245.8,1.22c3.056-.069,6.116-.051,9.176-.014C1035.739,1304.382,1035.057,1303.4,1035.144,1302.849Zm5.391-17.656c.339-1.2-.238-1.375-1.306-1.4-1.115-.029-1.415.253-1.407,1.386.007,1.108.256,1.44,1.393,1.4C1040.264,1286.539,1040.885,1286.412,1040.534,1285.193ZM1054.582,1303c.007-.538.469-1.425-.787-1.364-1.483.076-2.97.018-4.453.018-1.577,0-3.154.054-4.724-.018-1.263-.054-.776.841-.779,1.375s-.465,1.389.79,1.364q4.584-.092,9.176,0C1055.066,1304.4,1054.579,1303.531,1054.582,1303Zm18.684-1.357c-3.056.036-6.116.043-9.176,0-1.483-.022-.678,1.039-.815,1.613-.152.642-.1,1.191.9,1.126,1.523-.1,3.06-.025,4.59-.025,1.483,0,2.973-.065,4.449.022,1.1.069.909-.657.812-1.205S1074.649,1301.629,1073.267,1301.644Zm0,0c-3.056.036-6.116.043-9.176,0-1.483-.022-.678,1.039-.815,1.613-.152.642-.1,1.191.9,1.126,1.523-.1,3.06-.025,4.59-.025,1.483,0,2.973-.065,4.449.022,1.1.069.909-.657.812-1.205S1074.649,1301.629,1073.267,1301.644Zm-19.471-.007c-1.483.076-2.97.018-4.453.018-1.577,0-3.154.054-4.724-.018-1.263-.054-.776.841-.779,1.375s-.465,1.389.79,1.364q4.584-.092,9.176,0c1.259.025.772-.841.776-1.371S1055.051,1301.575,1053.8,1301.636Zm-14.567-17.844c-1.115-.029-1.415.253-1.407,1.386.007,1.108.256,1.44,1.393,1.4,1.05-.036,1.671-.162,1.321-1.382C1040.874,1283.995,1040.3,1283.818,1039.228,1283.793Zm-4.085,19.056c.083-.541.31-1.281-.8-1.216-1.479.087-2.97.022-4.453.022-1.573,0-3.15.033-4.723-.011-1.364-.036-.686.967-.769,1.516s-.31,1.245.8,1.22c3.056-.069,6.116-.051,9.176-.014C1035.739,1304.382,1035.057,1303.4,1035.144,1302.849Zm-2.14-16.267c1.108-.007,1.44-.252,1.4-1.393-.04-1.047-.166-1.667-1.386-1.321-1.2-.335-1.375.238-1.4,1.31C1031.589,1286.29,1031.871,1286.589,1033,1286.582Zm-6.264-.011c.949-.08,1.775.022,1.375-1.317.256-1.072-.061-1.5-1.252-1.461-1,.036-1.534.083-1.458,1.332C1025.466,1286.12,1025.491,1286.679,1026.74,1286.571Zm-6.066-2.7c-1.05-.238-1.537.025-1.476,1.245.05.978.05,1.559,1.321,1.465.974-.072,1.584-.051,1.458-1.324C1021.883,1284.338,1022.038,1283.457,1020.674,1283.868Zm-6.246-.076c-1.028.022-1.5.123-1.447,1.346.05,1.021.126,1.523,1.353,1.436.974-.069,1.743-.032,1.36-1.328C1015.972,1284.135,1015.586,1283.768,1014.427,1283.793Zm.419,17.836c-2.7.083-5.4.025-8.1.025-1.949,0-1.916,0-1.84,1.959.025.592.177.769.765.754,1.53-.04,3.06-.014,4.59-.014s3.064-.072,4.586.025c1.213.076.9-.725.859-1.31S1016.188,1301.589,1014.846,1301.629Zm90.413,10.919a24.734,24.734,0,0,0,3.356-5.492v-1.083a2.515,2.515,0,0,0-2.136-.826c-6.3.032-12.6-.014-18.9.047a1.728,1.728,0,0,1-1.88-1.223c-1.007-2.3-2.1-4.561-3.183-6.827-2.078-4.345-.967-3.554-5.6-3.547-1.267,0-1.62-.354-1.783-1.566a18.42,18.42,0,0,0-15.4-15.505c-3.81-.531-7.639-.173-11.46-.22-.931-.011-1.3-.242-1.519-1.162-1.137-4.792-2.374-9.555-3.525-14.344a2.024,2.024,0,0,0-2.338-1.833c-2.472.094-4.951.025-7.422.029-1.718,0-2.075.346-2.078,2.017q-.005,6.208,0,12.42c0,2.851,0,2.8-2.833,2.869-.945.022-1.3-.249-1.512-1.165-1.14-4.788-2.378-9.555-3.529-14.34a2.022,2.022,0,0,0-2.342-1.829c-2.472.094-4.951.025-7.426.029-1.71,0-2.068.346-2.071,2.021,0,4.727-.025,9.45.022,14.177.007.88-.22,1.14-1.1,1.1-1.707-.072-3.421-.029-5.131-.018-1.49.011-1.884.408-1.884,1.934-.007,3.962.014,7.921-.014,11.883-.007,1.111.491,2.562-.2,3.24s-2.14.224-3.248.177a2.093,2.093,0,0,0-2.262,1.454c-1.389,3.11-2.9,6.167-4.3,9.274a1.38,1.38,0,0,1-1.526.946c-1.617-.065-3.248.086-4.853-.054-1.2-.1-1.169.487-1.162,1.328s-.123,1.469,1.18,1.447c5.265-.094,10.529-.011,15.794-.065a2.168,2.168,0,0,1,2.078,1.079c.971,1.458,2.075,2.825,3.1,4.251a2.04,2.04,0,0,0,1.819.916q29.5-.022,59,0a2.128,2.128,0,0,0,1.912-1c1.039-1.465,2.165-2.872,3.179-4.355a1.85,1.85,0,0,1,1.765-.888c9.136.029,18.27.018,27.406.018h1.252c.119.455-.155.621-.292.826-5.265,7.83-10.551,15.643-15.787,23.491a2.123,2.123,0,0,1-2.046,1.086q-29.97-.048-59.943-.021-21.331,0-42.663.021c-.96,0-1.313-.155-1.27-1.219.094-2.378,0-4.767.043-7.152a5.121,5.121,0,0,0-.668-2.685q-3.61-6.463-7.123-12.983c-.224-.4-.631-.769-.523-1.364,1.855,0,3.7-.065,5.539.022,1.353.061.8-.873.852-1.451.047-.6.325-1.342-.87-1.3-2.428.09-4.861.022-7.289.029-2.024.007-2.533.837-1.577,2.594q4.243,7.8,8.512,15.6a2.979,2.979,0,0,1,.444,1.515c-.025,2.475-.04,4.951.007,7.423.014.761-.195.985-.964.971-2.519-.051-5.037-.029-7.56-.011-.314,0-.848-.224-.906.267a5.437,5.437,0,0,0,.076,2.255c.137.418.9.159,1.371.159q68.383.016,136.763.011v-2.7c-.53-.476-1.184-.35-1.8-.354-4.586-.011-9.173,0-13.759-.011-.382,0-.9.184-1.1-.26-.155-.343.213-.657.411-.945C1096.732,1325.348,1100.918,1318.9,1105.259,1312.548Zm-32.79-6.192c-1.018,1.479-2.14,2.887-3.176,4.355a1.434,1.434,0,0,1-1.324.675q-28.481-.021-56.959,0a1.423,1.423,0,0,1-1.321-.682c-1.036-1.469-2.161-2.872-3.179-4.352a2.513,2.513,0,0,0-2.356-1.212c-2.638.072-5.279.025-8.1.025,1.378-2.948,2.7-5.737,3.984-8.534.271-.588.754-.386,1.162-.39,4.229-.014,8.458-.007,12.687-.007,9.4,0,18.807-.029,28.211.036,1.234.007,1.2-.53,1.234-1.414.04-.985-.155-1.357-1.281-1.353-11.471.051-22.946.011-34.417.058-1.129.007-1.4-.271-1.386-1.389.076-4,.058-8.007.011-12.013-.011-.888.13-1.212,1.133-1.209q24.768.054,49.537.029a13.9,13.9,0,0,1,8.314,2.7H1057.5c-1.977,0-3.958-.011-5.939,0-1.447.011-1.905.534-1.793,2.006a7.853,7.853,0,0,0,7.765,7.159c4.316.04,8.639.087,12.954-.029,1.451-.04,2.068.375,2.035,1.8a4.391,4.391,0,0,0,.119.8,2.821,2.821,0,0,1-1.469.137c-7.109.011-14.217.051-21.326-.029-1.3-.015-1.166.6-1.184,1.451-.022.877.025,1.328,1.176,1.321,9.31-.061,18.627-.011,27.94-.065a1.8,1.8,0,0,1,1.967,1.288c1.108,2.533,2.331,5.016,3.569,7.654-2.948,0-5.727.047-8.5-.025A2.494,2.494,0,0,0,1072.469,1306.356Zm-52.38-44.658c.632,0,1.736,2.028,1.375,2.544-.09.126-.39.144-.6.144-.981.015-1.967.007-2.952.007-.895,0-1.793-.058-2.681.014-1.35.108-.79-.877-.837-1.443-.047-.584-.339-1.368.859-1.3C1016.863,1261.767,1018.476,1261.688,1020.089,1261.7Zm-2.944,5.395c1.393,0,2.786.051,4.175-.018.743-.036,1,.278,1.162.931.722,2.872.736,2.869-2.252,2.869h-1.483c-1.212,0-2.425-.032-3.634.014-.606.022-.722-.195-.751-.765C1014.211,1267.093,1014.193,1267.093,1017.145,1267.093Zm7.285,9.032c-.116.152-.48.141-.733.144-1.433.011-2.865,0-4.3,0-1.342,0-2.7-.09-4.027.029-1.378.119-.931-.8-.989-1.461-.061-.736-.137-1.342,1.021-1.3,2.548.1,5.106.025,7.657.032C1023.69,1273.581,1024.813,1275.63,1024.43,1276.125Zm14.755-14.455c1.177-.126,1.732.3,1.812,1.461a10.606,10.606,0,0,0,.249,1.263c-2.208,0-4.352-.014-6.492.011-.538.007-.646-.188-.678-.693-.137-2.021-.159-2.017,1.891-2.017A29.913,29.913,0,0,0,1039.185,1261.669Zm-5.113,5.979c.069-.505.274-.559.678-.559,2.154.011,4.312.029,6.466-.011.577-.011.776.242.927.714.989,3.082.992,3.082-2.252,3.082h-3.1C1033.855,1270.875,1033.664,1270.622,1034.072,1267.648Zm9.9,7.376a10.476,10.476,0,0,0,.238,1.249c-3.2,0-6.336-.011-9.469.011-.552.007-.631-.213-.664-.7-.126-2.006-.145-2.006,1.912-2.006,2.014,0,4.034.083,6.044-.029C1043.223,1273.476,1043.9,1273.758,1043.97,1275.024Zm27.081,13.12c-4.619,0-9.155.043-13.687-.015a4.808,4.808,0,0,1-4.608-3.756h10.493a11.8,11.8,0,0,0,2.288-.022C1068.6,1283.739,1070.037,1285.481,1071.051,1288.145Zm2.216,13.5c-3.056.036-6.116.043-9.176,0-1.483-.022-.678,1.039-.815,1.613-.152.642-.1,1.191.9,1.126,1.523-.1,3.06-.025,4.59-.025,1.483,0,2.973-.065,4.449.022,1.1.069.909-.657.812-1.205S1074.649,1301.629,1073.267,1301.644Zm-19.471-.007c-1.483.076-2.97.018-4.453.018-1.577,0-3.154.054-4.724-.018-1.263-.054-.776.841-.779,1.375s-.465,1.389.79,1.364q4.584-.092,9.176,0c1.259.025.772-.841.776-1.371S1055.051,1301.575,1053.8,1301.636Zm-14.567-17.844c-1.115-.029-1.415.253-1.407,1.386.007,1.108.256,1.44,1.393,1.4,1.05-.036,1.671-.162,1.321-1.382C1040.874,1283.995,1040.3,1283.818,1039.228,1283.793Zm-4.085,19.056c.083-.541.31-1.281-.8-1.216-1.479.087-2.97.022-4.453.022-1.573,0-3.15.033-4.723-.011-1.364-.036-.686.967-.769,1.516s-.31,1.245.8,1.22c3.056-.069,6.116-.051,9.176-.014C1035.739,1304.382,1035.057,1303.4,1035.144,1302.849Zm-2.125-18.98c-1.2-.335-1.375.238-1.4,1.31-.029,1.111.252,1.411,1.385,1.4,1.108-.007,1.44-.252,1.4-1.393C1034.364,1284.143,1034.238,1283.522,1033.018,1283.868Zm-6.156-.076c-1,.036-1.534.083-1.458,1.332.061,1,.087,1.555,1.335,1.447.949-.08,1.775.022,1.375-1.317C1028.37,1284.182,1028.053,1283.749,1026.862,1283.793Zm-6.188.076c-1.05-.238-1.537.025-1.476,1.245.05.978.05,1.559,1.321,1.465.974-.072,1.584-.051,1.458-1.324C1021.883,1284.338,1022.038,1283.457,1020.674,1283.868Zm-6.246-.076c-1.028.022-1.5.123-1.447,1.346.05,1.021.126,1.523,1.353,1.436.974-.069,1.743-.032,1.36-1.328C1015.972,1284.135,1015.586,1283.768,1014.427,1283.793Zm.419,17.836c-2.7.083-5.4.025-8.1.025-1.949,0-1.916,0-1.84,1.959.025.592.177.769.765.754,1.53-.04,3.06-.014,4.59-.014s3.064-.072,4.586.025c1.213.076.9-.725.859-1.31S1016.188,1301.589,1014.846,1301.629Zm0,0c-2.7.083-5.4.025-8.1.025-1.949,0-1.916,0-1.84,1.959.025.592.177.769.765.754,1.53-.04,3.06-.014,4.59-.014s3.064-.072,4.586.025c1.213.076.9-.725.859-1.31S1016.188,1301.589,1014.846,1301.629Zm.848-16.382c.278-1.111-.108-1.479-1.267-1.454-1.028.022-1.5.123-1.447,1.346.05,1.021.126,1.523,1.353,1.436C1015.308,1286.506,1016.077,1286.542,1015.694,1285.247Zm6.282.007c-.094-.917.061-1.8-1.3-1.386-1.05-.238-1.537.025-1.476,1.245.05.978.05,1.559,1.321,1.465C1021.493,1286.506,1022.1,1286.528,1021.976,1285.254Zm6.138,0c.256-1.072-.061-1.5-1.252-1.461-1,.036-1.534.083-1.458,1.332.061,1,.087,1.555,1.335,1.447C1027.688,1286.492,1028.515,1286.593,1028.114,1285.254Zm6.29-.065c-.04-1.047-.166-1.667-1.386-1.321-1.2-.335-1.375.238-1.4,1.31-.029,1.111.252,1.411,1.385,1.4C1034.112,1286.575,1034.443,1286.33,1034.4,1285.189Zm.74,17.66c.083-.541.31-1.281-.8-1.216-1.479.087-2.97.022-4.453.022-1.573,0-3.15.033-4.723-.011-1.364-.036-.686.967-.769,1.516s-.31,1.245.8,1.22c3.056-.069,6.116-.051,9.176-.014C1035.739,1304.382,1035.057,1303.4,1035.144,1302.849Zm5.391-17.656c.339-1.2-.238-1.375-1.306-1.4-1.115-.029-1.415.253-1.407,1.386.007,1.108.256,1.44,1.393,1.4C1040.264,1286.539,1040.885,1286.412,1040.534,1285.193ZM1054.582,1303c.007-.538.469-1.425-.787-1.364-1.483.076-2.97.018-4.453.018-1.577,0-3.154.054-4.724-.018-1.263-.054-.776.841-.779,1.375s-.465,1.389.79,1.364q4.584-.092,9.176,0C1055.066,1304.4,1054.579,1303.531,1054.582,1303Zm18.684-1.357c-3.056.036-6.116.043-9.176,0-1.483-.022-.678,1.039-.815,1.613-.152.642-.1,1.191.9,1.126,1.523-.1,3.06-.025,4.59-.025,1.483,0,2.973-.065,4.449.022,1.1.069.909-.657.812-1.205S1074.649,1301.629,1073.267,1301.644Zm0,0c-3.056.036-6.116.043-9.176,0-1.483-.022-.678,1.039-.815,1.613-.152.642-.1,1.191.9,1.126,1.523-.1,3.06-.025,4.59-.025,1.483,0,2.973-.065,4.449.022,1.1.069.909-.657.812-1.205S1074.649,1301.629,1073.267,1301.644ZM1054.582,1303c.007-.538.469-1.425-.787-1.364-1.483.076-2.97.018-4.453.018-1.577,0-3.154.054-4.724-.018-1.263-.054-.776.841-.779,1.375s-.465,1.389.79,1.364q4.584-.092,9.176,0C1055.066,1304.4,1054.579,1303.531,1054.582,1303Zm-14.048-17.807c.339-1.2-.238-1.375-1.306-1.4-1.115-.029-1.415.253-1.407,1.386.007,1.108.256,1.44,1.393,1.4C1040.264,1286.539,1040.885,1286.412,1040.534,1285.193Zm-5.391,17.656c.083-.541.31-1.281-.8-1.216-1.479.087-2.97.022-4.453.022-1.573,0-3.15.033-4.723-.011-1.364-.036-.686.967-.769,1.516s-.31,1.245.8,1.22c3.056-.069,6.116-.051,9.176-.014C1035.739,1304.382,1035.057,1303.4,1035.144,1302.849Zm-.74-17.66c-.04-1.047-.166-1.667-1.386-1.321-1.2-.335-1.375.238-1.4,1.31-.029,1.111.252,1.411,1.385,1.4C1034.112,1286.575,1034.443,1286.33,1034.4,1285.189Zm-6.29.065c.256-1.072-.061-1.5-1.252-1.461-1,.036-1.534.083-1.458,1.332.061,1,.087,1.555,1.335,1.447C1027.688,1286.492,1028.515,1286.593,1028.114,1285.254Zm-6.138,0c-.094-.917.061-1.8-1.3-1.386-1.05-.238-1.537.025-1.476,1.245.05.978.05,1.559,1.321,1.465C1021.493,1286.506,1022.1,1286.528,1021.976,1285.254Zm-6.282-.007c.278-1.111-.108-1.479-1.267-1.454-1.028.022-1.5.123-1.447,1.346.05,1.021.126,1.523,1.353,1.436C1015.308,1286.506,1016.077,1286.542,1015.694,1285.247Zm-.848,16.382c-2.7.083-5.4.025-8.1.025-1.949,0-1.916,0-1.84,1.959.025.592.177.769.765.754,1.53-.04,3.06-.014,4.59-.014s3.064-.072,4.586.025c1.213.076.9-.725.859-1.31S1016.188,1301.589,1014.846,1301.629Zm0,0c-2.7.083-5.4.025-8.1.025-1.949,0-1.916,0-1.84,1.959.025.592.177.769.765.754,1.53-.04,3.06-.014,4.59-.014s3.064-.072,4.586.025c1.213.076.9-.725.859-1.31S1016.188,1301.589,1014.846,1301.629Zm.848-16.382c.278-1.111-.108-1.479-1.267-1.454-1.028.022-1.5.123-1.447,1.346.05,1.021.126,1.523,1.353,1.436C1015.308,1286.506,1016.077,1286.542,1015.694,1285.247Zm6.282.007c-.094-.917.061-1.8-1.3-1.386-1.05-.238-1.537.025-1.476,1.245.05.978.05,1.559,1.321,1.465C1021.493,1286.506,1022.1,1286.528,1021.976,1285.254Zm6.138,0c.256-1.072-.061-1.5-1.252-1.461-1,.036-1.534.083-1.458,1.332.061,1,.087,1.555,1.335,1.447C1027.688,1286.492,1028.515,1286.593,1028.114,1285.254Zm6.29-.065c-.04-1.047-.166-1.667-1.386-1.321-1.2-.335-1.375.238-1.4,1.31-.029,1.111.252,1.411,1.385,1.4C1034.112,1286.575,1034.443,1286.33,1034.4,1285.189Zm.74,17.66c.083-.541.31-1.281-.8-1.216-1.479.087-2.97.022-4.453.022-1.573,0-3.15.033-4.723-.011-1.364-.036-.686.967-.769,1.516s-.31,1.245.8,1.22c3.056-.069,6.116-.051,9.176-.014C1035.739,1304.382,1035.057,1303.4,1035.144,1302.849Zm5.391-17.656c.339-1.2-.238-1.375-1.306-1.4-1.115-.029-1.415.253-1.407,1.386.007,1.108.256,1.44,1.393,1.4C1040.264,1286.539,1040.885,1286.412,1040.534,1285.193ZM1054.582,1303c.007-.538.469-1.425-.787-1.364-1.483.076-2.97.018-4.453.018-1.577,0-3.154.054-4.724-.018-1.263-.054-.776.841-.779,1.375s-.465,1.389.79,1.364q4.584-.092,9.176,0C1055.066,1304.4,1054.579,1303.531,1054.582,1303Zm18.684-1.357c-3.056.036-6.116.043-9.176,0-1.483-.022-.678,1.039-.815,1.613-.152.642-.1,1.191.9,1.126,1.523-.1,3.06-.025,4.59-.025,1.483,0,2.973-.065,4.449.022,1.1.069.909-.657.812-1.205S1074.649,1301.629,1073.267,1301.644Zm0,0c-3.056.036-6.116.043-9.176,0-1.483-.022-.678,1.039-.815,1.613-.152.642-.1,1.191.9,1.126,1.523-.1,3.06-.025,4.59-.025,1.483,0,2.973-.065,4.449.022,1.1.069.909-.657.812-1.205S1074.649,1301.629,1073.267,1301.644ZM1054.582,1303c.007-.538.469-1.425-.787-1.364-1.483.076-2.97.018-4.453.018-1.577,0-3.154.054-4.724-.018-1.263-.054-.776.841-.779,1.375s-.465,1.389.79,1.364q4.584-.092,9.176,0C1055.066,1304.4,1054.579,1303.531,1054.582,1303Zm-14.048-17.807c.339-1.2-.238-1.375-1.306-1.4-1.115-.029-1.415.253-1.407,1.386.007,1.108.256,1.44,1.393,1.4C1040.264,1286.539,1040.885,1286.412,1040.534,1285.193Zm-5.391,17.656c.083-.541.31-1.281-.8-1.216-1.479.087-2.97.022-4.453.022-1.573,0-3.15.033-4.723-.011-1.364-.036-.686.967-.769,1.516s-.31,1.245.8,1.22c3.056-.069,6.116-.051,9.176-.014C1035.739,1304.382,1035.057,1303.4,1035.144,1302.849Zm-.74-17.66c-.04-1.047-.166-1.667-1.386-1.321-1.2-.335-1.375.238-1.4,1.31-.029,1.111.252,1.411,1.385,1.4C1034.112,1286.575,1034.443,1286.33,1034.4,1285.189Zm-6.29.065c.256-1.072-.061-1.5-1.252-1.461-1,.036-1.534.083-1.458,1.332.061,1,.087,1.555,1.335,1.447C1027.688,1286.492,1028.515,1286.593,1028.114,1285.254Zm-6.138,0c-.094-.917.061-1.8-1.3-1.386-1.05-.238-1.537.025-1.476,1.245.05.978.05,1.559,1.321,1.465C1021.493,1286.506,1022.1,1286.528,1021.976,1285.254Zm-6.282-.007c.278-1.111-.108-1.479-1.267-1.454-1.028.022-1.5.123-1.447,1.346.05,1.021.126,1.523,1.353,1.436C1015.308,1286.506,1016.077,1286.542,1015.694,1285.247Zm-.848,16.382c-2.7.083-5.4.025-8.1.025-1.949,0-1.916,0-1.84,1.959.025.592.177.769.765.754,1.53-.04,3.06-.014,4.59-.014s3.064-.072,4.586.025c1.213.076.9-.725.859-1.31S1016.188,1301.589,1014.846,1301.629Z" transform="translate(-970.325 -1258.964)"/>
  <path id="Path_2697" data-name="Path 2697" class="cls-1" d="M1108.644,1486.512v2.7q-68.378,0-136.763-.011c-.473,0-1.234.26-1.375-.162a6.913,6.913,0,0,1-.087-2.259c.007-.289.3-.267.516-.267.361,0,.722,0,1.083,0Z" transform="translate(-970.354 -1404.403)"/>
  <path id="Path_2698" data-name="Path 2698" class="cls-1" d="M1097.064,1418.292a5.368,5.368,0,0,0-5.4,5.369,5.4,5.4,0,1,0,10.8,0A5.362,5.362,0,0,0,1097.064,1418.292Zm0,8.072a2.757,2.757,0,0,1-2.692-2.775,2.7,2.7,0,0,1,5.391.007A2.754,2.754,0,0,1,1097.061,1426.364Z" transform="translate(-1047.881 -1360.799)"/>
  <path id="Path_2699" data-name="Path 2699" class="cls-1" d="M1152.373,1418.292a5.37,5.37,0,0,0-5.337,5.431,5.4,5.4,0,1,0,10.8-.126A5.373,5.373,0,0,0,1152.373,1418.292Zm.065,8.072a2.76,2.76,0,0,1-2.7-2.771,2.7,2.7,0,0,1,5.395,0A2.76,2.76,0,0,1,1152.438,1426.364Z" transform="translate(-1083.27 -1360.799)"/>
  <path id="Path_2700" data-name="Path 2700" class="cls-1" d="M1207.84,1418.292a5.37,5.37,0,0,0-5.424,5.344,5.4,5.4,0,1,0,10.8.047A5.365,5.365,0,0,0,1207.84,1418.292Zm.025,8.072a2.754,2.754,0,0,1-2.746-2.721,2.7,2.7,0,0,1,5.391.032A2.755,2.755,0,0,1,1207.865,1426.364Z" transform="translate(-1118.667 -1360.799)"/>
  <path id="Path_2701" data-name="Path 2701" class="cls-1" d="M1076.921,1378.64c.036.584.354,1.386-.859,1.31-1.523-.1-3.056-.025-4.586-.025s-3.06-.025-4.59.014c-.588.015-.74-.162-.765-.754-.076-1.959-.108-1.959,1.84-1.959,2.7,0,5.4.058,8.1-.025C1077.4,1377.16,1076.885,1378.062,1076.921,1378.64Z" transform="translate(-1031.537 -1334.534)"/>
  <path id="Path_2702" data-name="Path 2702" class="cls-1" d="M1091.241,1329.224c.382,1.3-.386,1.259-1.36,1.328-1.227.087-1.3-.415-1.353-1.436-.058-1.223.419-1.324,1.447-1.346C1091.133,1327.745,1091.519,1328.113,1091.241,1329.224Z" transform="translate(-1045.872 -1302.941)"/>
  <path id="Path_2703" data-name="Path 2703" class="cls-1" d="M1108.535,1329.183c.126,1.274-.484,1.252-1.458,1.324-1.27.094-1.27-.487-1.321-1.465-.061-1.22.426-1.483,1.476-1.245C1108.6,1327.386,1108.442,1328.267,1108.535,1329.183Z" transform="translate(-1056.884 -1302.893)"/>
  <path id="Path_2704" data-name="Path 2704" class="cls-1" d="M1122.953,1329.1c-.076-1.249.455-1.3,1.458-1.332,1.191-.043,1.508.39,1.252,1.462.4,1.339-.426,1.238-1.375,1.317C1123.04,1330.654,1123.015,1330.094,1122.953,1329.1Z" transform="translate(-1067.874 -1302.938)"/>
  <path id="Path_2705" data-name="Path 2705" class="cls-1" d="M1140.183,1329.121c.025-1.072.2-1.646,1.4-1.31,1.22-.347,1.346.274,1.386,1.321.04,1.14-.292,1.386-1.4,1.393C1140.435,1330.532,1140.154,1330.232,1140.183,1329.121Z" transform="translate(-1078.889 -1302.906)"/>
  <path id="Path_2706" data-name="Path 2706" class="cls-1" d="M1129.982,1379.937c-3.06-.036-6.12-.054-9.176.014-1.111.025-.884-.678-.8-1.22s-.6-1.552.769-1.516c1.573.043,3.15.011,4.723.011,1.483,0,2.973.065,4.453-.022,1.111-.065.884.675.8,1.216S1131.346,1379.955,1129.982,1379.937Z" transform="translate(-1065.932 -1334.536)"/>
  <path id="Path_2707" data-name="Path 2707" class="cls-1" d="M1160.089,1329.169c.35,1.22-.271,1.346-1.321,1.382-1.137.043-1.386-.289-1.393-1.4-.007-1.133.292-1.415,1.407-1.386C1159.851,1327.794,1160.428,1327.971,1160.089,1329.169Z" transform="translate(-1089.88 -1302.94)"/>
  <path id="Path_2708" data-name="Path 2708" class="cls-1" d="M1184.64,1378.581c0,.53.484,1.4-.776,1.371q-4.59-.086-9.176,0c-1.256.025-.8-.83-.79-1.364s-.484-1.429.779-1.375c1.57.072,3.147.018,4.723.018,1.483,0,2.97.058,4.453-.018C1185.109,1377.155,1184.647,1378.043,1184.64,1378.581Z" transform="translate(-1100.383 -1334.544)"/>
  <path id="Path_2709" data-name="Path 2709" class="cls-1" d="M1238.494,1378.761c.1.548.292,1.274-.812,1.205-1.476-.087-2.966-.022-4.449-.022-1.53,0-3.067-.072-4.59.025-1,.065-1.05-.484-.9-1.126.137-.574-.667-1.635.816-1.613,3.06.047,6.12.04,9.176,0C1239.118,1377.221,1238.4,1378.22,1238.494,1378.761Z" transform="translate(-1134.794 -1334.555)"/>
  <path id="Path_2710" data-name="Path 2710" class="cls-1" d="M1076.921,1378.64c.036.584.354,1.386-.859,1.31-1.523-.1-3.056-.025-4.586-.025s-3.06-.025-4.59.014c-.588.015-.74-.162-.765-.754-.076-1.959-.108-1.959,1.84-1.959,2.7,0,5.4.058,8.1-.025C1077.4,1377.16,1076.885,1378.062,1076.921,1378.64Z" transform="translate(-1031.537 -1334.534)"/>
  <path id="Path_2711" data-name="Path 2711" class="cls-1" d="M1129.982,1379.937c-3.06-.036-6.12-.054-9.176.014-1.111.025-.884-.678-.8-1.22s-.6-1.552.769-1.516c1.573.043,3.15.011,4.723.011,1.483,0,2.973.065,4.453-.022,1.111-.065.884.675.8,1.216S1131.346,1379.955,1129.982,1379.937Z" transform="translate(-1065.932 -1334.536)"/>
  <path id="Path_2712" data-name="Path 2712" class="cls-1" d="M1183.864,1379.952q-4.59-.086-9.176,0c-1.256.025-.8-.83-.79-1.364s-.484-1.429.779-1.375c1.57.072,3.147.018,4.723.018,1.483,0,2.97.058,4.453-.018,1.256-.061.794.826.787,1.364S1185.124,1379.977,1183.864,1379.952Z" transform="translate(-1100.383 -1334.544)"/>
  <path id="Path_2713" data-name="Path 2713" class="cls-1" d="M1238.494,1378.761c.1.548.292,1.274-.812,1.205-1.476-.087-2.966-.022-4.449-.022-1.53,0-3.067-.072-4.59.025-1,.065-1.05-.484-.9-1.126.137-.574-.667-1.635.816-1.613,3.06.047,6.12.04,9.176,0C1239.118,1377.221,1238.4,1378.22,1238.494,1378.761Z" transform="translate(-1134.794 -1334.555)"/>
  <path id="Path_2714" data-name="Path 2714" class="cls-1" d="M1089.881,1330.552c-1.227.087-1.3-.415-1.353-1.436-.058-1.223.419-1.324,1.447-1.346,1.158-.025,1.544.343,1.267,1.454C1091.624,1330.52,1090.855,1330.484,1089.881,1330.552Z" transform="translate(-1045.872 -1302.941)"/>
  <path id="Path_2715" data-name="Path 2715" class="cls-1" d="M1107.078,1330.508c-1.27.094-1.27-.487-1.321-1.465-.061-1.22.426-1.483,1.476-1.245,1.364-.411,1.209.469,1.3,1.386C1108.662,1330.457,1108.052,1330.436,1107.078,1330.508Z" transform="translate(-1056.884 -1302.893)"/>
  <path id="Path_2716" data-name="Path 2716" class="cls-1" d="M1124.289,1330.545c-1.249.108-1.274-.451-1.335-1.447-.076-1.249.455-1.3,1.458-1.332,1.191-.043,1.508.39,1.252,1.462C1126.064,1330.567,1125.238,1330.466,1124.289,1330.545Z" transform="translate(-1067.874 -1302.938)"/>
  <path id="Path_2717" data-name="Path 2717" class="cls-1" d="M1141.568,1330.525c-1.133.007-1.415-.292-1.386-1.4.025-1.072.2-1.646,1.4-1.31,1.22-.347,1.346.274,1.386,1.321C1143.008,1330.272,1142.676,1330.517,1141.568,1330.525Z" transform="translate(-1078.889 -1302.906)"/>
  <path id="Path_2718" data-name="Path 2718" class="cls-1" d="M1158.769,1330.551c-1.137.043-1.386-.289-1.393-1.4-.007-1.133.292-1.415,1.407-1.386,1.068.025,1.645.2,1.306,1.4C1160.439,1330.388,1159.819,1330.515,1158.769,1330.551Z" transform="translate(-1089.88 -1302.94)"/>
</svg>
